<svg width="18" height="18" viewBox="0 0 18 18" fill="none" xmlns="http://www.w3.org/2000/svg">
<path d="M15.75 8.99995C15.5511 8.99995 15.3603 9.07897 15.2197 9.21962C15.079 9.36028 15 9.55104 15 9.74995V14.25C15 14.4489 14.921 14.6396 14.7803 14.7803C14.6397 14.9209 14.4489 15 14.25 15H3.75C3.55109 15 3.36032 14.9209 3.21967 14.7803C3.07902 14.6396 3 14.4489 3 14.25V3.74995C3 3.55104 3.07902 3.36028 3.21967 3.21962C3.36032 3.07897 3.55109 2.99995 3.75 2.99995H8.25C8.44891 2.99995 8.63968 2.92094 8.78033 2.78028C8.92098 2.63963 9 2.44887 9 2.24995C9 2.05104 8.92098 1.86028 8.78033 1.71962C8.63968 1.57897 8.44891 1.49995 8.25 1.49995H3.75C3.15326 1.49995 2.58097 1.73701 2.15901 2.15896C1.73705 2.58092 1.5 3.15322 1.5 3.74995V14.25C1.5 14.8467 1.73705 15.419 2.15901 15.8409C2.58097 16.2629 3.15326 16.5 3.75 16.5H14.25C14.8467 16.5 15.419 16.2629 15.841 15.8409C16.2629 15.419 16.5 14.8467 16.5 14.25V9.74995C16.5 9.55104 16.421 9.36028 16.2803 9.21962C16.1397 9.07897 15.9489 8.99995 15.75 8.99995ZM4.5 9.56995V12.75C4.5 12.9489 4.57902 13.1396 4.71967 13.2803C4.86032 13.4209 5.05109 13.5 5.25 13.5H8.43C8.5287 13.5005 8.62655 13.4816 8.71793 13.4443C8.80931 13.407 8.89242 13.352 8.9625 13.2825L14.1525 8.08495L16.2825 5.99995C16.3528 5.93023 16.4086 5.84728 16.4467 5.75589C16.4847 5.66449 16.5043 5.56646 16.5043 5.46745C16.5043 5.36844 16.4847 5.27042 16.4467 5.17902C16.4086 5.08763 16.3528 5.00468 16.2825 4.93495L13.1025 1.71745C13.0328 1.64716 12.9498 1.59136 12.8584 1.55329C12.767 1.51521 12.669 1.49561 12.57 1.49561C12.471 1.49561 12.373 1.51521 12.2816 1.55329C12.1902 1.59136 12.1072 1.64716 12.0375 1.71745L9.9225 3.83995L4.7175 9.03745C4.64799 9.10753 4.59299 9.19065 4.55567 9.28202C4.51835 9.3734 4.49943 9.47125 4.5 9.56995ZM12.57 3.30745L14.6925 5.42995L13.6275 6.49495L11.505 4.37245L12.57 3.30745ZM6 9.87745L10.4475 5.42995L12.57 7.55245L8.1225 12H6V9.87745Z" fill="#E8DA5D"/>
</svg>
