<svg width="27" height="27" viewBox="0 0 27 27" fill="none" xmlns="http://www.w3.org/2000/svg">
<path d="M12.375 19.125H14.625V12.375H12.375V19.125ZM13.5 10.125C13.8188 10.125 14.0861 10.017 14.3021 9.801C14.5181 9.585 14.6257 9.318 14.625 9C14.625 8.68125 14.517 8.41388 14.301 8.19788C14.085 7.98188 13.818 7.87425 13.5 7.875C13.1812 7.875 12.9139 7.983 12.6979 8.199C12.4819 8.415 12.3743 8.682 12.375 9C12.375 9.31875 12.483 9.58613 12.699 9.80213C12.915 10.0181 13.182 10.1258 13.5 10.125ZM13.5 24.75C11.9438 24.75 10.4813 24.4545 9.1125 23.8635C7.74375 23.2725 6.55313 22.4711 5.54063 21.4594C4.52813 20.4469 3.72675 19.2563 3.1365 17.8875C2.54625 16.5187 2.25075 15.0562 2.25 13.5C2.25 11.9438 2.5455 10.4813 3.1365 9.1125C3.7275 7.74375 4.52888 6.55313 5.54063 5.54063C6.55313 4.52813 7.74375 3.72675 9.1125 3.1365C10.4813 2.54625 11.9438 2.25075 13.5 2.25C15.0562 2.25 16.5187 2.5455 17.8875 3.1365C19.2563 3.7275 20.4469 4.52888 21.4594 5.54063C22.4719 6.55313 23.2736 7.74375 23.8646 9.1125C24.4556 10.4813 24.7507 11.9438 24.75 13.5C24.75 15.0562 24.4545 16.5187 23.8635 17.8875C23.2725 19.2563 22.4711 20.4469 21.4594 21.4594C20.4469 22.4719 19.2563 23.2736 17.8875 23.8646C16.5187 24.4556 15.0562 24.7507 13.5 24.75Z" fill="#B20040"/>
</svg>
