<svg width="460" height="135" viewBox="0 0 460 135" fill="none" xmlns="http://www.w3.org/2000/svg">
<path d="M87.35 99.81C82.55 99.81 78.23 98.76 74.39 96.66C70.55 94.5 67.52 91.47 65.3 87.57C63.14 83.67 62.06 79.17 62.06 74.07C62.06 68.97 63.17 64.47 65.39 60.57C67.67 56.67 70.76 53.67 74.66 51.57C78.56 49.41 82.91 48.33 87.71 48.33C92.51 48.33 96.86 49.41 100.76 51.57C104.66 53.67 107.72 56.67 109.94 60.57C112.22 64.47 113.36 68.97 113.36 74.07C113.36 79.17 112.19 83.67 109.85 87.57C107.57 91.47 104.45 94.5 100.49 96.66C96.59 98.76 92.21 99.81 87.35 99.81ZM87.35 88.83C89.63 88.83 91.76 88.29 93.74 87.21C95.78 86.07 97.4 84.39 98.6 82.17C99.8 79.95 100.4 77.25 100.4 74.07C100.4 69.33 99.14 65.7 96.62 63.18C94.16 60.6 91.13 59.31 87.53 59.31C83.93 59.31 80.9 60.6 78.44 63.18C76.04 65.7 74.84 69.33 74.84 74.07C74.84 78.81 76.01 82.47 78.35 85.05C80.75 87.57 83.75 88.83 87.35 88.83ZM119.363 73.89C119.363 68.85 120.353 64.38 122.333 60.48C124.373 56.58 127.103 53.58 130.523 51.48C134.003 49.38 137.873 48.33 142.133 48.33C145.853 48.33 149.093 49.08 151.853 50.58C154.673 52.08 156.923 53.97 158.603 56.25V49.14H171.293V99H158.603V91.71C156.983 94.05 154.733 96 151.853 97.56C149.033 99.06 145.763 99.81 142.043 99.81C137.843 99.81 134.003 98.73 130.523 96.57C127.103 94.41 124.373 91.38 122.333 87.48C120.353 83.52 119.363 78.99 119.363 73.89ZM158.603 74.07C158.603 71.01 158.003 68.4 156.803 66.24C155.603 64.02 153.983 62.34 151.943 61.2C149.903 60 147.713 59.4 145.373 59.4C143.033 59.4 140.873 59.97 138.893 61.11C136.913 62.25 135.293 63.93 134.033 66.15C132.833 68.31 132.233 70.89 132.233 73.89C132.233 76.89 132.833 79.53 134.033 81.81C135.293 84.03 136.913 85.74 138.893 86.94C140.933 88.14 143.093 88.74 145.373 88.74C147.713 88.74 149.903 88.17 151.943 87.03C153.983 85.83 155.603 84.15 156.803 81.99C158.003 79.77 158.603 77.13 158.603 74.07ZM196.199 32.4V99H183.599V32.4H196.199ZM254.458 55.62C254.458 58.98 253.648 62.13 252.027 65.07C250.468 68.01 247.978 70.38 244.558 72.18C241.198 73.98 236.938 74.88 231.778 74.88H221.248V99H208.648V36.18H231.778C236.638 36.18 240.778 37.02 244.198 38.7C247.618 40.38 250.168 42.69 251.848 45.63C253.588 48.57 254.458 51.9 254.458 55.62ZM231.238 64.71C234.718 64.71 237.298 63.93 238.978 62.37C240.658 60.75 241.498 58.5 241.498 55.62C241.498 49.5 238.078 46.44 231.238 46.44H221.248V64.71H231.238ZM309.753 72.99C309.753 74.79 309.633 76.41 309.393 77.85H272.943C273.243 81.45 274.503 84.27 276.723 86.31C278.943 88.35 281.673 89.37 284.913 89.37C289.593 89.37 292.923 87.36 294.903 83.34H308.493C307.053 88.14 304.293 92.1 300.213 95.22C296.133 98.28 291.123 99.81 285.183 99.81C280.383 99.81 276.063 98.76 272.223 96.66C268.443 94.5 265.473 91.47 263.313 87.57C261.213 83.67 260.163 79.17 260.163 74.07C260.163 68.91 261.213 64.38 263.313 60.48C265.413 56.58 268.353 53.58 272.133 51.48C275.913 49.38 280.263 48.33 285.183 48.33C289.923 48.33 294.153 49.35 297.873 51.39C301.653 53.43 304.563 56.34 306.603 60.12C308.703 63.84 309.753 68.13 309.753 72.99ZM296.703 69.39C296.643 66.15 295.473 63.57 293.193 61.65C290.913 59.67 288.123 58.68 284.823 58.68C281.703 58.68 279.063 59.64 276.903 61.56C274.803 63.42 273.513 66.03 273.033 69.39H296.703ZM315.71 73.89C315.71 68.85 316.7 64.38 318.68 60.48C320.72 56.58 323.48 53.58 326.96 51.48C330.44 49.38 334.31 48.33 338.57 48.33C341.81 48.33 344.9 49.05 347.84 50.49C350.78 51.87 353.12 53.73 354.86 56.07V32.4H367.64V99H354.86V91.62C353.3 94.08 351.11 96.06 348.29 97.56C345.47 99.06 342.2 99.81 338.48 99.81C334.28 99.81 330.44 98.73 326.96 96.57C323.48 94.41 320.72 91.38 318.68 87.48C316.7 83.52 315.71 78.99 315.71 73.89ZM354.95 74.07C354.95 71.01 354.35 68.4 353.15 66.24C351.95 64.02 350.33 62.34 348.29 61.2C346.25 60 344.06 59.4 341.72 59.4C339.38 59.4 337.22 59.97 335.24 61.11C333.26 62.25 331.64 63.93 330.38 66.15C329.18 68.31 328.58 70.89 328.58 73.89C328.58 76.89 329.18 79.53 330.38 81.81C331.64 84.03 333.26 85.74 335.24 86.94C337.28 88.14 339.44 88.74 341.72 88.74C344.06 88.74 346.25 88.17 348.29 87.03C350.33 85.83 351.95 84.15 353.15 81.99C354.35 79.77 354.95 77.13 354.95 74.07ZM386.336 43.2C384.116 43.2 382.256 42.51 380.756 41.13C379.316 39.69 378.596 37.92 378.596 35.82C378.596 33.72 379.316 31.98 380.756 30.6C382.256 29.16 384.116 28.44 386.336 28.44C388.556 28.44 390.386 29.16 391.826 30.6C393.326 31.98 394.076 33.72 394.076 35.82C394.076 37.92 393.326 39.69 391.826 41.13C390.386 42.51 388.556 43.2 386.336 43.2ZM392.546 49.14V99H379.946V49.14H392.546ZM401.755 73.89C401.755 68.85 402.745 64.38 404.725 60.48C406.765 56.58 409.495 53.58 412.915 51.48C416.395 49.38 420.265 48.33 424.525 48.33C428.245 48.33 431.485 49.08 434.245 50.58C437.065 52.08 439.315 53.97 440.995 56.25V49.14H453.685V99H440.995V91.71C439.375 94.05 437.125 96 434.245 97.56C431.425 99.06 428.155 99.81 424.435 99.81C420.235 99.81 416.395 98.73 412.915 96.57C409.495 94.41 406.765 91.38 404.725 87.48C402.745 83.52 401.755 78.99 401.755 73.89ZM440.995 74.07C440.995 71.01 440.395 68.4 439.195 66.24C437.995 64.02 436.375 62.34 434.335 61.2C432.295 60 430.105 59.4 427.765 59.4C425.425 59.4 423.265 59.97 421.285 61.11C419.305 62.25 417.685 63.93 416.425 66.15C415.225 68.31 414.625 70.89 414.625 73.89C414.625 76.89 415.225 79.53 416.425 81.81C417.685 84.03 419.305 85.74 421.285 86.94C423.325 88.14 425.485 88.74 427.765 88.74C430.105 88.74 432.295 88.17 434.335 87.03C436.375 85.83 437.995 84.15 439.195 81.99C440.395 79.77 440.995 77.13 440.995 74.07Z" fill="#9656A1"/>
<path d="M51.1257 22.8689C57.0486 28.7919 51.1257 46.9839 38.0106 46.9839C43.3378 42.8596 40.126 34.7148 40.126 34.7148C37.4193 26.2534 45.2028 16.9459 51.1257 22.8689Z" fill="#9656A1"/>
<path d="M31.6648 34.7148C31.6648 34.7148 40.126 38.0994 34.6261 46.9839C25.1493 40.5533 13.8958 43.1762 11.7805 54.5991C9.07269 67.122 27.0109 74.4455 38.0106 70.2527C18.9723 85.0602 -11.0657 62.2144 4.16483 41.0609C14.1298 27.2207 31.6648 34.7148 31.6648 34.7148Z" fill="#9656A1"/>
<path d="M2.65696 107.131C-3.26599 101.208 2.65691 83.0161 15.772 83.0161C10.4449 87.1404 13.6567 95.2852 13.6567 95.2852C16.3633 103.747 8.5799 113.054 2.65696 107.131Z" fill="#9656A1"/>
<path d="M22.1179 95.2852C22.1179 95.2852 13.6567 91.9006 19.1566 83.0161C28.6334 89.4467 39.8868 86.8238 42.0022 75.4009C44.71 62.878 26.7717 55.5545 15.7721 59.7473C34.8103 44.9398 64.8483 67.7856 49.6178 88.9391C39.6529 102.779 22.1179 95.2852 22.1179 95.2852Z" fill="#9656A1"/>
</svg>
