<svg width="344" height="344" viewBox="0 0 344 344" fill="none" xmlns="http://www.w3.org/2000/svg">
<circle cx="172" cy="172" r="172" fill="#F8F8F8"/>
<path d="M99.02 195.62C99.02 198.98 98.21 202.13 96.59 205.07C95.03 208.01 92.54 210.38 89.12 212.18C85.76 213.98 81.5 214.88 76.34 214.88H65.81V239H53.21V176.18H76.34C81.2 176.18 85.34 177.02 88.76 178.7C92.18 180.38 94.73 182.69 96.41 185.63C98.15 188.57 99.02 191.9 99.02 195.62ZM75.8 204.71C79.28 204.71 81.86 203.93 83.54 202.37C85.22 200.75 86.06 198.5 86.06 195.62C86.06 189.5 82.64 186.44 75.8 186.44H65.81V204.71H75.8ZM154.316 212.99C154.316 214.79 154.196 216.41 153.956 217.85H117.506C117.806 221.45 119.066 224.27 121.286 226.31C123.506 228.35 126.236 229.37 129.476 229.37C134.156 229.37 137.486 227.36 139.466 223.34H153.056C151.616 228.14 148.856 232.1 144.776 235.22C140.696 238.28 135.686 239.81 129.746 239.81C124.946 239.81 120.626 238.76 116.786 236.66C113.006 234.5 110.036 231.47 107.876 227.57C105.776 223.67 104.726 219.17 104.726 214.07C104.726 208.91 105.776 204.38 107.876 200.48C109.976 196.58 112.916 193.58 116.696 191.48C120.476 189.38 124.826 188.33 129.746 188.33C134.486 188.33 138.716 189.35 142.436 191.39C146.216 193.43 149.126 196.34 151.166 200.12C153.266 203.84 154.316 208.13 154.316 212.99ZM141.266 209.39C141.206 206.15 140.036 203.57 137.756 201.65C135.476 199.67 132.686 198.68 129.386 198.68C126.266 198.68 123.626 199.64 121.466 201.56C119.366 203.42 118.076 206.03 117.596 209.39H141.266ZM160.273 213.89C160.273 208.85 161.263 204.38 163.243 200.48C165.283 196.58 168.043 193.58 171.523 191.48C175.003 189.38 178.873 188.33 183.133 188.33C186.373 188.33 189.463 189.05 192.403 190.49C195.343 191.87 197.683 193.73 199.423 196.07V172.4H212.203V239H199.423V231.62C197.863 234.08 195.673 236.06 192.853 237.56C190.033 239.06 186.763 239.81 183.043 239.81C178.843 239.81 175.003 238.73 171.523 236.57C168.043 234.41 165.283 231.38 163.243 227.48C161.263 223.52 160.273 218.99 160.273 213.89ZM199.513 214.07C199.513 211.01 198.913 208.4 197.713 206.24C196.513 204.02 194.893 202.34 192.853 201.2C190.813 200 188.623 199.4 186.283 199.4C183.943 199.4 181.783 199.97 179.803 201.11C177.823 202.25 176.203 203.93 174.943 206.15C173.743 208.31 173.143 210.89 173.143 213.89C173.143 216.89 173.743 219.53 174.943 221.81C176.203 224.03 177.823 225.74 179.803 226.94C181.843 228.14 184.003 228.74 186.283 228.74C188.623 228.74 190.813 228.17 192.853 227.03C194.893 225.83 196.513 224.15 197.713 221.99C198.913 219.77 199.513 217.13 199.513 214.07ZM230.899 183.2C228.679 183.2 226.819 182.51 225.319 181.13C223.879 179.69 223.159 177.92 223.159 175.82C223.159 173.72 223.879 171.98 225.319 170.6C226.819 169.16 228.679 168.44 230.899 168.44C233.119 168.44 234.949 169.16 236.389 170.6C237.889 171.98 238.639 173.72 238.639 175.82C238.639 177.92 237.889 179.69 236.389 181.13C234.949 182.51 233.119 183.2 230.899 183.2ZM237.109 189.14V239H224.509V189.14H237.109ZM246.318 213.89C246.318 208.85 247.308 204.38 249.288 200.48C251.328 196.58 254.058 193.58 257.478 191.48C260.958 189.38 264.828 188.33 269.088 188.33C272.808 188.33 276.048 189.08 278.808 190.58C281.628 192.08 283.878 193.97 285.558 196.25V189.14H298.248V239H285.558V231.71C283.938 234.05 281.688 236 278.808 237.56C275.988 239.06 272.718 239.81 268.998 239.81C264.798 239.81 260.958 238.73 257.478 236.57C254.058 234.41 251.328 231.38 249.288 227.48C247.308 223.52 246.318 218.99 246.318 213.89ZM285.558 214.07C285.558 211.01 284.958 208.4 283.758 206.24C282.558 204.02 280.938 202.34 278.898 201.2C276.858 200 274.668 199.4 272.328 199.4C269.988 199.4 267.828 199.97 265.848 201.11C263.868 202.25 262.248 203.93 260.988 206.15C259.788 208.31 259.188 210.89 259.188 213.89C259.188 216.89 259.788 219.53 260.988 221.81C262.248 224.03 263.868 225.74 265.848 226.94C267.888 228.14 270.048 228.74 272.328 228.74C274.668 228.74 276.858 228.17 278.898 227.03C280.938 225.83 282.558 224.15 283.758 221.99C284.958 219.77 285.558 217.13 285.558 214.07Z" fill="#9656A1"/>
<path d="M137.35 154.81C132.55 154.81 128.23 153.76 124.39 151.66C120.55 149.5 117.52 146.47 115.3 142.57C113.14 138.67 112.06 134.17 112.06 129.07C112.06 123.97 113.17 119.47 115.39 115.57C117.67 111.67 120.76 108.67 124.66 106.57C128.56 104.41 132.91 103.33 137.71 103.33C142.51 103.33 146.86 104.41 150.76 106.57C154.66 108.67 157.72 111.67 159.94 115.57C162.22 119.47 163.36 123.97 163.36 129.07C163.36 134.17 162.19 138.67 159.85 142.57C157.57 146.47 154.45 149.5 150.49 151.66C146.59 153.76 142.21 154.81 137.35 154.81ZM137.35 143.83C139.63 143.83 141.76 143.29 143.74 142.21C145.78 141.07 147.4 139.39 148.6 137.17C149.8 134.95 150.4 132.25 150.4 129.07C150.4 124.33 149.14 120.7 146.62 118.18C144.16 115.6 141.13 114.31 137.53 114.31C133.93 114.31 130.9 115.6 128.44 118.18C126.04 120.7 124.84 124.33 124.84 129.07C124.84 133.81 126.01 137.47 128.35 140.05C130.75 142.57 133.75 143.83 137.35 143.83ZM169.363 128.89C169.363 123.85 170.353 119.38 172.333 115.48C174.373 111.58 177.103 108.58 180.523 106.48C184.003 104.38 187.873 103.33 192.133 103.33C195.853 103.33 199.093 104.08 201.853 105.58C204.673 107.08 206.923 108.97 208.603 111.25V104.14H221.293V154H208.603V146.71C206.983 149.05 204.733 151 201.853 152.56C199.033 154.06 195.763 154.81 192.043 154.81C187.843 154.81 184.003 153.73 180.523 151.57C177.103 149.41 174.373 146.38 172.333 142.48C170.353 138.52 169.363 133.99 169.363 128.89ZM208.603 129.07C208.603 126.01 208.003 123.4 206.803 121.24C205.603 119.02 203.983 117.34 201.943 116.2C199.903 115 197.713 114.4 195.373 114.4C193.033 114.4 190.873 114.97 188.893 116.11C186.913 117.25 185.293 118.93 184.033 121.15C182.833 123.31 182.233 125.89 182.233 128.89C182.233 131.89 182.833 134.53 184.033 136.81C185.293 139.03 186.913 140.74 188.893 141.94C190.933 143.14 193.093 143.74 195.373 143.74C197.713 143.74 199.903 143.17 201.943 142.03C203.983 140.83 205.603 139.15 206.803 136.99C208.003 134.77 208.603 132.13 208.603 129.07ZM246.199 87.4V154H233.599V87.4H246.199Z" fill="#9656A1"/>
<path d="M102.431 80.8069C108.158 86.5336 102.431 104.123 89.7507 104.123C94.9013 100.135 91.7959 92.2602 91.7959 92.2602C89.179 84.0793 96.7045 75.0803 102.431 80.8069Z" fill="#9656A1"/>
<path d="M83.6152 92.2602C83.6152 92.2602 91.7959 95.5326 86.4783 104.123C77.3157 97.9051 66.4352 100.441 64.39 111.485C61.772 123.593 79.1156 130.674 89.7507 126.62C71.3435 140.937 42.3011 118.848 57.0268 98.396C66.6614 85.0145 83.6152 92.2602 83.6152 92.2602Z" fill="#9656A1"/>
<path d="M55.5689 162.276C49.8423 156.55 55.5689 138.961 68.2493 138.961C63.0987 142.948 66.2041 150.823 66.2041 150.823C68.821 159.004 61.2955 168.003 55.5689 162.276Z" fill="#9656A1"/>
<path d="M74.3848 150.823C74.3848 150.823 66.2041 147.551 71.5217 138.961C80.6843 145.178 91.5648 142.642 93.61 131.598C96.228 119.49 78.8844 112.409 68.2493 116.463C86.6565 102.146 115.699 124.235 100.973 144.687C91.3386 158.069 74.3848 150.823 74.3848 150.823Z" fill="#9656A1"/>
</svg>
